<svg xmlns="http://www.w3.org/2000/svg" width="929.561" height="186.078" viewBox="0 0 929.561 186.078">
  <g id="Group_94" data-name="Group 94" transform="translate(-473.703 1280.015)">
    <g id="Group_92" data-name="Group 92" transform="translate(357 -2388)">
      <g id="Group_52" data-name="Group 52">
        <path id="Path_481" data-name="Path 481" d="M135,1164.84l61.914-37.06,15.47,9.468v85.837h17.839V1127.9l-32.976-19.916L116.7,1155.307v90.681l1,.655c10.3,6.732,32.072,20.79,32.291,20.931l3.412,2.2.026-20.692L135,1236.9Z" fill="#12245f"/>
        <path id="Path_482" data-name="Path 482" d="M276.051,1155.405c-10.3-6.731-32.072-20.79-32.291-20.931l-3.411-2.2-.027,20.692,18.437,12.189v72.056l-61.914,37.06-15.471-9.469v-85.837H163.536v95.184l32.976,19.916,80.542-47.322V1156.06Z" fill="#12245f"/>
      </g>
      <rect id="Rectangle_21" data-name="Rectangle 21" width="17.838" height="68.725" transform="translate(187.853 1168.807)" fill="#5d5750"/>
    </g>
    <g id="Group_93" data-name="Group 93" transform="translate(357 -2388)">
      <path id="Path_483" data-name="Path 483" d="M392.38,1245.61H363.153l-34.305-39.495v39.495H307.633v-93.1h21.215v38.029l31.935-38.029h25.729l-37.465,44.123Z" fill="#12245f"/>
      <path id="Path_484" data-name="Path 484" d="M415.286,1187.721v27.534q0,8.577,2.6,12.187t8.8,3.611q6.205,0,8.8-3.611t2.594-12.187v-27.534h19.974v32.386q0,14.446-7.5,20.82t-23.867,6.376q-16.362,0-23.866-6.376t-7.5-20.82v-32.386Z" fill="#12245f"/>
      <path id="Path_485" data-name="Path 485" d="M536.593,1187.721l-27.534,27.646L539.3,1245.61H513.573l-23.133-23.133v23.133H470.466v-97.046H490.44v59.356l20.2-20.2Z" fill="#12245f"/>
      <path id="Path_486" data-name="Path 486" d="M562.209,1187.721v27.534q0,8.577,2.6,12.187t8.8,3.611q6.2,0,8.8-3.611T585,1215.255v-27.534h19.974v32.386q0,14.446-7.5,20.82t-23.867,6.376q-16.363,0-23.867-6.376t-7.5-20.82v-32.386Z" fill="#12245f"/>
      <path id="Path_487" data-name="Path 487" d="M673.36,1187.721,644.7,1230.376H671.1v15.234H611.182l28.662-42.655H615.921v-15.234Z" fill="#12245f"/>
      <path id="Path_488" data-name="Path 488" d="M684.644,1238.445q-8.125-8.859-8.125-21.723a31.157,31.157,0,0,1,8.125-21.779,26.718,26.718,0,0,1,20.65-8.915q11.509,0,18.958,7.222v-5.529h19.974v57.889H724.478v-6.545h-.226a24.432,24.432,0,0,1-18.958,8.238A26.791,26.791,0,0,1,684.644,1238.445Zm16.982-31.54a13.5,13.5,0,0,0,9.649,23.358,12.966,12.966,0,0,0,9.648-3.836,14.336,14.336,0,0,0-.113-19.522,13.07,13.07,0,0,0-9.535-3.837A13.209,13.209,0,0,0,701.626,1206.905Z" fill="#12245f"/>
    </g>
    <rect id="Rectangle_42" data-name="Rectangle 42" width="6.699" height="101.541" transform="translate(1123.072 -1221.259)" fill="#5d5750"/>
    <text id="EMPOWERMENT_SACCO_LIMITED" data-name="EMPOWERMENT
SACCO LIMITED" transform="translate(1150.264 -1177.487)" fill="#12245f" font-size="35.256" font-family="SourceSansPro-SemiBold, Source Sans Pro" font-weight="600" letter-spacing="0.02em"><tspan x="0" y="0">EMPOWERMENT</tspan><tspan x="0" y="38">SACCO LIMITED</tspan></text>
  </g>
</svg>
