<svg xmlns="http://www.w3.org/2000/svg" width="929.561" height="186.078" viewBox="0 0 929.561 186.078">
    <defs>
        <style>.a,.b{fill:#fff;}.b{font-size:35.256px;font-family:SourceSansPro-SemiBold, Source Sans
            Pro;font-weight:600;letter-spacing:0.02em;}
        </style>
    </defs>
    <g transform="translate(-992.992 838.015)">
        <g transform="translate(-127 -1946)">
            <path class="a"
                  d="M1138.287,1164.84l61.914-37.06,15.47,9.468v85.837h17.839V1127.9l-32.976-19.916-80.542,47.322v90.681l1,.655c10.3,6.732,32.072,20.79,32.291,20.931l3.412,2.2.026-20.692-18.437-12.189Z"/>
            <path class="a"
                  d="M1279.339,1155.405c-10.3-6.731-32.071-20.79-32.29-20.931l-3.412-2.2-.026,20.692,18.437,12.189v72.056l-61.914,37.06-15.471-9.469v-85.837h-17.838v95.184l32.976,19.916,80.542-47.322V1156.06Z"/>
            <rect class="a" width="17.838" height="68.725" transform="translate(1191.142 1168.807)"/>
        </g>
        <g transform="translate(-127 -1946)">
            <path class="a"
                  d="M1395.669,1245.61h-29.228l-34.3-39.495v39.495h-21.215v-93.1h21.215v38.029l31.935-38.029H1389.8l-37.465,44.123Z"/>
            <path class="a"
                  d="M1418.575,1187.721v27.534q0,8.577,2.6,12.187t8.8,3.611q6.2,0,8.8-3.611t2.595-12.187v-27.534h19.974v32.386q0,14.446-7.5,20.82t-23.867,6.376q-16.362,0-23.866-6.376t-7.5-20.82v-32.386Z"/>
            <path class="a"
                  d="M1539.882,1187.721l-27.534,27.646,30.243,30.243h-25.729l-23.133-23.133v23.133h-19.974v-97.046h19.974v59.356l20.2-20.2Z"/>
            <path class="a"
                  d="M1565.5,1187.721v27.534q0,8.577,2.595,12.187t8.8,3.611q6.2,0,8.8-3.611t2.595-12.187v-27.534h19.974v32.386q0,14.446-7.5,20.82T1576.9,1247.3q-16.364,0-23.867-6.376t-7.5-20.82v-32.386Z"/>
            <path class="a" d="M1676.648,1187.721l-28.663,42.655h26.407v15.234h-59.921l28.662-42.655H1619.21v-15.234Z"/>
            <path class="a"
                  d="M1687.933,1238.445q-8.125-8.859-8.125-21.723a31.157,31.157,0,0,1,8.125-21.779,26.717,26.717,0,0,1,20.65-8.915q11.509,0,18.958,7.222v-5.529h19.974v57.889h-19.748v-6.545h-.226a24.432,24.432,0,0,1-18.958,8.238A26.79,26.79,0,0,1,1687.933,1238.445Zm16.982-31.54a13.5,13.5,0,0,0,9.649,23.358,12.968,12.968,0,0,0,9.648-3.836,14.337,14.337,0,0,0-.113-19.522,13.07,13.07,0,0,0-9.535-3.837A13.208,13.208,0,0,0,1704.915,1206.905Z"/>
        </g>
        <rect class="a" width="6.699" height="101.541" transform="translate(1642.361 -779.259)"/>
        <text class="b" transform="translate(1669.553 -735.487)">
            <tspan x="0" y="0">EMPOWERMENT</tspan>
            <tspan x="0" y="38">SACCO LIMITED</tspan>
        </text>
    </g>
</svg>